name rise49.8558peak67.6521fall70.3087.mot
datacolumns 19
datarows 15
range 12.09495000000000 12.11828800000000
endheader
time	ground_force1_vx	ground_force1_vy	ground_force1_vz	ground_force1_px	ground_force1_py	ground_force1_pz	ground_force2_vx	ground_force2_vy	ground_force2_vz	ground_force2_px	ground_force2_py	ground_force2_pz	ground_torque1_x	ground_torque1_y	ground_torque1_z	ground_torque2_x	ground_torque2_y	ground_torque2_z	
12.09495000000000	-44.16928900000000	805.81300599999997	62.40653000000000	0.22743700000000	0.00000000000000	0.10883500000000	0.00000000000000	0.00000000000000	0.00000000000000	0.00000000000000	0.00000000000000	0.00000000000000	0.00000000000000	38.27044400000000	0.00000000000000	0.00000000000000	0.00000000000000	0.00000000000000	
12.09662000000000	-44.52989300000000	804.85784600000000	62.46680100000000	0.22630400000000	0.00000000000000	0.10883100000000	-0.96190200000000	3.60941700000000	0.61599800000000	0.00000000000000	0.00000000000000	0.00000000000000	0.00000000000000	38.19371900000000	0.00000000000000	0.00000000000000	0.25672200000000	0.00000000000000	
12.09828500000000	-44.88552700000000	803.78202599999997	62.50629900000000	0.22516500000000	0.00000000000000	0.10882400000000	-1.52142400000000	7.23162900000000	1.02213400000000	0.00000000000000	0.00000000000000	0.00000000000000	0.00000000000000	38.10631100000000	0.00000000000000	0.00000000000000	0.43534400000000	0.00000000000000	
12.09995000000000	-45.23648800000000	802.58327699999995	62.52426600000000	0.22402000000000	0.00000000000000	0.10881500000000	-2.14960000000000	11.64540500000000	1.48874600000000	0.00000000000000	0.00000000000000	0.00000000000000	0.00000000000000	38.00816300000000	0.00000000000000	0.00000000000000	0.64249300000000	0.00000000000000	
12.10161700000000	-45.58307800000000	801.25938900000006	62.51997700000000	0.22287000000000	0.00000000000000	0.10880400000000	-2.82570100000000	16.81405000000000	2.00369800000000	0.00000000000000	0.00000000000000	0.00000000000000	0.00000000000000	37.89923700000000	0.00000000000000	0.00000000000000	0.87338800000000	0.00000000000000	
12.10328500000000	-45.92559800000000	799.80821400000002	62.49273500000000	0.22171400000000	0.00000000000000	0.10878900000000	-3.52412800000000	22.66701000000000	2.55120800000000	0.00000000000000	0.00000000000000	0.00000000000000	0.00000000000000	37.77951600000000	0.00000000000000	0.00000000000000	1.12163600000000	0.00000000000000	
12.10496900000000	-46.26434700000000	798.22766799999999	62.44187600000000	0.22055400000000	0.00000000000000	0.10877200000000	-4.21603300000000	29.10528700000000	3.11286200000000	0.38601700000000	0.00000000000000	-0.08950400000000	0.00000000000000	37.64900600000000	0.00000000000000	0.00000000000000	2.20392200000000	0.00000000000000	
12.10662100000000	-46.59961900000000	796.51572599999997	62.36677700000000	0.21938900000000	0.00000000000000	0.10875300000000	-4.87135700000000	36.00986900000000	3.66894500000000	0.38991400000000	0.00000000000000	-0.09031100000000	0.00000000000000	37.50773200000000	0.00000000000000	0.00000000000000	2.62986900000000	0.00000000000000	
12.10828400000000	-46.93170100000000	794.67042900000001	62.26685000000000	0.21822000000000	0.00000000000000	0.10873000000000	-5.46101500000000	43.25205500000000	4.19990400000000	0.39348300000000	0.00000000000000	-0.09102000000000	0.00000000000000	37.35574200000000	0.00000000000000	0.00000000000000	3.04767200000000	0.00000000000000	
12.10995700000000	-47.26087300000000	792.68988200000001	62.14154900000000	0.21704800000000	0.00000000000000	0.10870400000000	-5.95894100000000	50.70419500000000	4.68776000000000	0.39678200000000	0.00000000000000	-0.09164900000000	0.00000000000000	37.19310400000000	0.00000000000000	0.00000000000000	3.44465100000000	0.00000000000000	
12.11162200000000	-47.58740000000000	790.57225300000005	61.99037400000000	0.21587300000000	0.00000000000000	0.10867500000000	-6.34373000000000	58.24940200000000	5.11727400000000	0.39985600000000	0.00000000000000	-0.09221100000000	0.00000000000000	37.01990900000000	0.00000000000000	0.00000000000000	3.80978100000000	0.00000000000000	
12.11328900000000	-47.91153400000000	788.31577600000003	61.81286800000000	0.21469600000000	0.00000000000000	0.10864200000000	-6.59972400000000	65.78920599999999	5.47675800000000	0.40274100000000	0.00000000000000	-0.09271800000000	0.00000000000000	36.83626500000000	0.00000000000000	0.00000000000000	4.13431600000000	0.00000000000000	
12.11495200000000	-48.23351300000000	785.91875100000004	61.60862600000000	0.21351800000000	0.00000000000000	0.10860600000000	-6.71748700000000	73.24858999999999	5.75848600000000	0.40546500000000	0.00000000000000	-0.09317700000000	0.00000000000000	36.64230500000000	0.00000000000000	0.00000000000000	4.41214100000000	0.00000000000000	
12.11661700000000	-48.55355100000000	783.37954800000000	61.37728900000000	0.21234000000000	0.00000000000000	0.10856700000000	-6.69370000000000	80.57831100000000	5.95872400000000	0.40805400000000	0.00000000000000	-0.09359500000000	0.00000000000000	36.43817800000000	0.00000000000000	0.00000000000000	4.63985200000000	0.00000000000000	
12.11828800000000	-48.87184300000000	780.69660099999999	61.11855200000000	0.21116200000000	0.00000000000000	0.10852400000000	-6.53058400000000	87.75470700000000	6.07741900000000	0.41052500000000	0.00000000000000	-0.09397800000000	0.00000000000000	36.22405400000000	0.00000000000000	0.00000000000000	4.81660700000000	0.00000000000000	
